<?xml version="1.0" encoding="iso-8859-1"?>
<!-- Generator: Adobe Illustrator 17.0.0, SVG Export Plug-In . SVG Version: 6.00 Build 0)  -->
<!DOCTYPE svg PUBLIC "-//W3C//DTD SVG 1.1//EN" "http://www.w3.org/Graphics/SVG/1.1/DTD/svg11.dtd">
<svg version="1.1" id="_x31_6_x5F_global_x5F_network"
	 xmlns="http://www.w3.org/2000/svg" xmlns:xlink="http://www.w3.org/1999/xlink" x="0px" y="0px" width="64px" height="64px"
	 viewBox="0 0 64 64" style="enable-background:new 0 0 64 64;" xml:space="preserve">
<g>
	<g>
		<circle style="fill:none;stroke:#222829;stroke-width:2;stroke-miterlimit:10;" cx="32" cy="4" r="3"/>
		<circle style="fill:none;stroke:#222829;stroke-width:2;stroke-miterlimit:10;" cx="32" cy="60" r="3"/>
		<line style="fill:none;stroke:#222829;stroke-width:2;stroke-miterlimit:10;" x1="32" y1="16" x2="32" y2="7"/>
		<line style="fill:none;stroke:#222829;stroke-width:2;stroke-miterlimit:10;" x1="32" y1="48" x2="32" y2="57"/>
		<circle style="fill:none;stroke:#222829;stroke-width:2;stroke-miterlimit:10;" cx="60" cy="32" r="3"/>
		<circle style="fill:none;stroke:#222829;stroke-width:2;stroke-miterlimit:10;" cx="4" cy="32" r="3"/>
		<line style="fill:none;stroke:#222829;stroke-width:2;stroke-miterlimit:10;" x1="48" y1="32" x2="57" y2="32"/>
		<line style="fill:none;stroke:#222829;stroke-width:2;stroke-miterlimit:10;" x1="16" y1="32" x2="7" y2="32"/>
		<circle style="fill:none;stroke:#222829;stroke-width:2;stroke-miterlimit:10;" cx="32" cy="32" r="21"/>
		<path style="fill:none;stroke:#222829;stroke-width:2;stroke-miterlimit:10;" d="M59.118,39
			C56.586,48.839,48.839,56.586,39,59.118"/>
		<path style="fill:none;stroke:#222829;stroke-width:2;stroke-miterlimit:10;" d="M39,4.882C48.84,7.415,56.585,15.161,59.118,25"
			/>
		<path style="fill:none;stroke:#222829;stroke-width:2;stroke-miterlimit:10;" d="M4.883,25C7.329,15.496,14.638,7.946,24,5.16"/>
		<path style="fill:none;stroke:#222829;stroke-width:2;stroke-miterlimit:10;" d="M24.998,59.118
			C15.16,56.585,7.415,48.839,4.883,39"/>
		<circle style="fill:none;stroke:#222829;stroke-width:2;stroke-miterlimit:10;" cx="32" cy="32" r="13"/>
		<line style="fill:none;stroke:#222829;stroke-width:2;stroke-miterlimit:10;" x1="44" y1="44" x2="55" y2="55"/>
		<line style="fill:none;stroke:#222829;stroke-width:2;stroke-miterlimit:10;" x1="9" y1="9" x2="19.999" y2="19.999"/>
		<line style="fill:none;stroke:#222829;stroke-width:2;stroke-miterlimit:10;" x1="43.999" y1="20" x2="55" y2="9"/>
		<line style="fill:none;stroke:#222829;stroke-width:2;stroke-miterlimit:10;" x1="9" y1="55" x2="20" y2="44"/>
		<ellipse style="fill:none;stroke:#222829;stroke-width:2;stroke-miterlimit:10;" cx="32" cy="32" rx="5" ry="13"/>
		<ellipse style="fill:none;stroke:#222829;stroke-width:2;stroke-miterlimit:10;" cx="32" cy="32" rx="13" ry="5"/>
	</g>
</g>
</svg>
