<svg id="Layer_1" data-name="Layer 1" xmlns="http://www.w3.org/2000/svg" xmlns:xlink="http://www.w3.org/1999/xlink" viewBox="0 0 1000 200"><defs><style>.cls-1{fill:none;}.cls-2{fill:#fff;}.cls-3{fill:#dad2c8;}.cls-4{fill:#c23c27;}.cls-5{fill:#c33c28;}.cls-6{opacity:0.2;}.cls-7{clip-path:url(#clip-path);}.cls-8{fill:#231f20;}.cls-9{fill:#ea4c36;}.cls-10{fill:#c43e29;}.cls-11{fill:#c33c27;}.cls-12{fill:#ef7565;opacity:0.45;}.cls-13{fill:#2f3540;}</style><clipPath id="clip-path"><rect id="SVGID" class="cls-1" x="113.17" y="97.78" width="3.34" height="10.05" transform="translate(-39.05 111.31) rotate(-45)"/></clipPath></defs><title>long-logo</title><circle class="cls-2" cx="113.97" cy="99.84" r="82.71"/><path class="cls-3" d="M114.28,17.36a82.75,82.75,0,0,0-82.75,82.75c0,21.3,8.16,36.44,14.81,47.1,5.62,6.19,29.9-13.33,43.47-25.71,0.4-.36,19.77-19.77,19.77-19.77l5.55,5.55s-19.35,19.29-19.63,19.61C64.05,162,73.35,171.7,73.35,171.7l-0.1-.07a77.1,77.1,0,0,0,41,11.22c45.68-1.29,82.75-37,82.75-82.75A82.75,82.75,0,0,0,114.28,17.36Z"/><path class="cls-2" d="M160.41,56.09a7.9,7.9,0,1,0,0,11.17,7.91,7.91,0,0,0,0-11.17"/><path class="cls-4" d="M115.46,66.24c3-1.34,8.67-1.82,8.91-1.84a0.48,0.48,0,0,1,.48.25,0.59,0.59,0,0,1-.06.58l-9.6,22.43a0.69,0.69,0,0,1-.47.3,0.48,0.48,0,0,1-.46-0.18,5.62,5.62,0,0,0-.44-0.49c-1.25-1.25-12.11-5.61-17-2.63a0.56,0.56,0,0,1-.64,0l0,0A0.53,0.53,0,0,1,96,84c4.6-10.88,16.4-16.44,19.44-17.8"/><path class="cls-5" d="M119.16,105.38a0.26,0.26,0,0,0-.11-0.35,12.69,12.69,0,0,1-6.44-6.44,0.26,0.26,0,0,0-.35-0.11,1.34,1.34,0,0,0-.55.35L108.54,102a0.87,0.87,0,0,0-.34.81,17.36,17.36,0,0,0,2.7,3.94,17.36,17.36,0,0,0,3.94,2.7,0.87,0.87,0,0,0,.81-0.34l3.17-3.17a1.33,1.33,0,0,0,.35-0.55"/><g class="cls-6"><g class="cls-7"><path class="cls-8" d="M119.34,105.2a0.26,0.26,0,0,0-.11-0.35,12.68,12.68,0,0,1-6.44-6.44,0.26,0.26,0,0,0-.35-0.11,1.34,1.34,0,0,0-.55.35l-1.75,1.75a1.33,1.33,0,0,1,.55-0.35,0.26,0.26,0,0,1,.35.11,12.68,12.68,0,0,0,6.44,6.44,0.26,0.26,0,0,1,.11.35,1.32,1.32,0,0,1-.35.55l1.75-1.75a1.33,1.33,0,0,0,.35-0.55"/></g></g><path class="cls-9" d="M181.61,33.33c-2.87-2.87-32.86,5.36-50.56,23.06-17.16,17.17-19.22,42.48-19.23,42.7a0.94,0.94,0,0,0,.1.54,24.64,24.64,0,0,0,3,3.4,12.82,12.82,0,0,0,3.32,2.64,1.21,1.21,0,0,0,.5.09c8.62,0.29,22-1.32,39.46-18.83C175.86,69.26,184.25,36,181.61,33.33ZM160,66.78a7.19,7.19,0,1,1,0-10.17A7.2,7.2,0,0,1,160,66.78Z"/><path class="cls-9" d="M151.75,104.25c1.59-4.18,1.81-12.32,1.81-12.66a3.66,3.66,0,0,0-.53-1.72c-0.26-.15-1.17-1.89-2.41-1l-16,11.3c-1.74.79-1.92,1.58-1.93,1.85a0.81,0.81,0,0,0,.31.69,2,2,0,0,1,.76.69,19.21,19.21,0,0,1,2.39,16,1,1,0,0,0,.09.93l0,0a0.72,0.72,0,0,0,.86.2c12.28-8,13-12.12,14.61-16.37"/><path class="cls-10" d="M159.7,56.8a6.9,6.9,0,1,1-9.75,0,6.9,6.9,0,0,1,9.75,0m0.71-.71a7.9,7.9,0,1,0,0,11.17,7.91,7.91,0,0,0,0-11.17"/><path class="cls-11" d="M179.59,32.75c-2.83-.09-6.07.7-9.79,1.68-2.66.7-4.78,1.6-7.39,2.5,2.74,1.2,4.74,3.26,7.06,5.14a32.3,32.3,0,0,1,4.05,4.14s0.68,0.79.81,1,0.54,0.66.6,0.77c0.8,1.19,1.15,1.54,2,2.92a14.45,14.45,0,0,1,1.19,1.8,76.32,76.32,0,0,0,3.68-14.14c0.5-3.44.18-4.61,0-4.94a1.29,1.29,0,0,0-.4-0.44A4.1,4.1,0,0,0,179.59,32.75Z"/><path class="cls-12" d="M181.79,33.59a180.45,180.45,0,0,1-14.24,28.25C162.43,70,156,76.59,151.22,81.62c-7,7.44-13.65,13.63-22,18.6-5.2,3.11-10.39,5.17-10.08,5.16,3.94-.13,9,0,14.59-2.09,6.86-2.57,17.95-11.23,17.93-11-0.26,3.08-.95,8.13-2,10.88a31.61,31.61,0,0,1-13.34,15.89l-0.41.76a0.91,0.91,0,0,0,.21,1l0,0a0.74,0.74,0,0,0,.86.19c10-5.81,13-12.12,14.61-16.37a43.2,43.2,0,0,0,1.91-13.07s3-2.63,4.52-4.24c8-8.26,14.67-21.06,17.58-28.16,8-19.51,6.12-25.59,6.12-25.59"/><path class="cls-13" d="M250.5,145.1V53.85h20.36V127h38.9V145.1H250.5Z"/><path class="cls-13" d="M382.35,145.1H363.94v-8.49q-7.57,9.53-18.73,9.53t-18.73-6.46q-7.57-6.46-7.57-17.23t7.83-16.12q7.83-5.35,21.41-5.35h14.62v-0.39q0-11.23-11.88-11.23a32.13,32.13,0,0,0-10.77,2,35,35,0,0,0-9.59,5l-8.75-12.66a52.38,52.38,0,0,1,31.59-10.05q12.79,0,20.89,6.4t8.09,20.23V145.1Zm-19.71-26.76v-3.39H350.36q-11.75,0-11.75,7.31a6.72,6.72,0,0,0,2.81,5.81q2.81,2,8,2a14.27,14.27,0,0,0,9.2-3.2A10.41,10.41,0,0,0,362.63,118.34Z"/><path class="cls-13" d="M445.53,112.72V74.86h19.71V145.1H445.53v-9.27q-7.31,10.31-18.86,10.31t-19.39-7.25q-7.83-7.25-7.83-21.47V74.86h19.71v38.25q0,16.19,11.88,16.19a14,14,0,0,0,10.18-4.24Q445.53,120.82,445.53,112.72Z"/><path class="cls-13" d="M503.36,105.93V145.1H483.78V74.86h19.58V82.7q8.88-9,20-9a24.73,24.73,0,0,1,18.6,7.83q7.51,7.83,7.51,20.89V145.1H529.86V105.41q0-16.19-11.88-16.19a14.25,14.25,0,0,0-10.25,4.24Q503.36,97.71,503.36,105.93Z"/><path class="cls-13" d="M600.88,128.78q9.79,0,17.62-9.79L630.12,132q-13.58,14.1-29.37,14.1t-26.7-10q-10.9-10-10.9-26.11t11-26.24a37.42,37.42,0,0,1,26.17-10.12,40.81,40.81,0,0,1,15.34,3.13,38.8,38.8,0,0,1,13.64,9.27L619.15,99.41a24.26,24.26,0,0,0-18-8.49,19.07,19.07,0,0,0-13.25,5q-5.55,5-5.55,14t5.55,13.9A18.86,18.86,0,0,0,600.88,128.78Z"/><path class="cls-13" d="M662.75,107.24V145.1H643.17V48.23h19.58V82.7q8.88-9,19.91-9a24.87,24.87,0,0,1,18.6,7.83q7.57,7.83,7.57,20.89V145.1H689.25V106.72q0-16.19-11.88-16.19a14.25,14.25,0,0,0-10.25,4.24Q662.75,99,662.75,107.24Z"/><path class="cls-13" d="M767.45,73.69q12.27,0,21.87,10.25t9.6,25.78q0,15.54-9.6,26t-22.45,10.44a24.73,24.73,0,0,1-20.69-10.31v34.59H726.59V74.86h19.58V82.7A29.1,29.1,0,0,1,767.45,73.69ZM745.91,110q0,8.55,4.76,14a14.84,14.84,0,0,0,11.55,5.42A15.82,15.82,0,0,0,774.1,124q5.09-5.42,5.09-13.9a21,21,0,0,0-5-14.23,15.2,15.2,0,0,0-11.88-5.74,14.7,14.7,0,0,0-11.68,5.68Q745.91,101.5,745.91,110Z"/><path class="cls-13" d="M873.19,145.1H854.78v-8.49q-7.57,9.53-18.73,9.53t-18.73-6.46q-7.57-6.46-7.57-17.23t7.83-16.12Q825.41,101,839,101H853.6v-0.39q0-11.23-11.88-11.23a32.13,32.13,0,0,0-10.77,2,35,35,0,0,0-9.59,5l-8.75-12.66a52.38,52.38,0,0,1,31.59-10.05q12.79,0,20.89,6.4t8.09,20.23V145.1Zm-19.71-26.76v-3.39H841.2q-11.75,0-11.75,7.31a6.72,6.72,0,0,0,2.81,5.81q2.81,2,8,2a14.27,14.27,0,0,0,9.2-3.2A10.41,10.41,0,0,0,853.47,118.34Z"/><path class="cls-13" d="M919.2,146.14q-12.47,0-22.26-10.57t-9.79-26.24q0-15.67,9.53-25.65t22.32-10q12.79,0,20.89,9V48.23h19.58V145.1H939.89v-9.27Q931.67,146.14,919.2,146.14Zm-12.34-36q0,8.49,5.09,13.9a15.82,15.82,0,0,0,11.88,5.42A14.84,14.84,0,0,0,935.39,124q4.76-5.42,4.77-14t-4.77-14.23a14.7,14.7,0,0,0-11.68-5.68,15.19,15.19,0,0,0-11.88,5.74A21,21,0,0,0,906.87,110.11Z"/></svg>